<svg xmlns="http://www.w3.org/2000/svg" width="267.57080078125" height="289.53759765625" viewBox="-30.393056869506836 -40.489112854003906 267.57080078125 289.53759765625"><title>Neo4j Graph Visualization</title><desc>Created using Neo4j (http://www.neo4j.com/)</desc><g class="layer relationships"><g class="relationship" transform="translate(115.2176713936737 -11.489111146623195) rotate(390.95450120808283)"><path class="outline" fill="#A5ABB6" stroke="none" d="M 25 0.5 L 33.30765973662214 0.5 L 33.30765973662214 -0.5 L 25 -0.5 Z M 68.09099256132917 0.5 L 76.39865229795132 0.5 L 76.39865229795132 3.5 L 83.39865229795132 0 L 76.39865229795132 -3.5 L 76.39865229795132 -0.5 L 68.09099256132917 -0.5 Z"/><text text-anchor="middle" pointer-events="none" font-size="8px" fill="#000000" x="50.69932614897566" y="3" font-family="sans-serif">ORIGIN</text></g><g class="relationship" transform="translate(115.2176713936737 -11.489111146623195) rotate(509.15699618786095)"><path class="outline" fill="#A5ABB6" stroke="none" d="M 25 0.5 L 25.875757210099586 0.5 L 25.875757210099586 -0.5 L 25 -0.5 Z M 74.87575721009958 0.5 L 75.75151442019917 0.5 L 75.75151442019917 3.5 L 82.75151442019917 0 L 75.75151442019917 -3.5 L 75.75151442019917 -0.5 L 74.87575721009958 -0.5 Z"/><text text-anchor="middle" pointer-events="none" font-size="8px" fill="#000000" x="50.375757210099586" y="3" transform="rotate(180 50.375757210099586 0)" font-family="sans-serif">DESTINA…</text></g><g class="relationship" transform="translate(-1.3930571602459896 148.76456864797893) rotate(282.92449010003827)"><path class="outline" fill="#A5ABB6" stroke="none" d="M 25 0.5 L 32.97851489913793 0.5 L 32.97851489913793 -0.5 L 25 -0.5 Z M 67.76184772384497 0.5 L 75.74036262298289 0.5 L 75.74036262298289 3.5 L 82.74036262298289 0 L 75.74036262298289 -3.5 L 75.74036262298289 -0.5 L 67.76184772384497 -0.5 Z"/><text text-anchor="middle" pointer-events="none" font-size="8px" fill="#000000" x="50.37018131149144" y="3" font-family="sans-serif">ORIGIN</text></g><g class="relationship" transform="translate(-1.3930571602459896 148.76456864797893) rotate(401.12504433329553)"><path class="outline" fill="#A5ABB6" stroke="none" d="M 25 0.5 L 26.19143006569211 0.5 L 26.19143006569211 -0.5 L 25 -0.5 Z M 75.19143006569212 0.5 L 76.38286013138422 0.5 L 76.38286013138422 3.5 L 83.38286013138422 0 L 76.38286013138422 -3.5 L 76.38286013138422 -0.5 L 75.19143006569212 -0.5 Z"/><text text-anchor="middle" pointer-events="none" font-size="8px" fill="#000000" x="50.69143006569211" y="3" font-family="sans-serif">DESTINA…</text></g></g><g class="layer nodes"><g class="node" transform="translate(208.17775664346848,44.266519693346964)"><circle class="outline" cx="0" cy="0" r="25" fill="#ECB5C9" stroke="#da7298" stroke-width="2px"/><text text-anchor="middle" pointer-events="none" font-family="sans-serif" dy="1.5625" font-size="25" fill="#2A2C34"/><text text-anchor="middle" pointer-events="none" x="0" y="5" font-size="10px" fill="#2A2C34" font-family="sans-serif"> IND</text></g><g class="node" transform="translate(80.24914776125547,220.04847107913625)"><circle class="outline" cx="0" cy="0" r="25" fill="#ECB5C9" stroke="#da7298" stroke-width="2px"/><text text-anchor="middle" pointer-events="none" font-family="sans-serif" dy="1.5625" font-size="25" fill="#2A2C34"/><text text-anchor="middle" pointer-events="none" x="0" y="5" font-size="10px" fill="#2A2C34" font-family="sans-serif"> MSN</text></g><g class="node" transform="translate(115.2176713936737,-11.489111146623195)"><circle class="outline" cx="0" cy="0" r="25" fill="#4C8EDA" stroke="#2870c2" stroke-width="2px"/><text text-anchor="middle" pointer-events="none" font-family="sans-serif" dy="1.5625" font-size="25" fill="#FFFFFF"/><text text-anchor="middle" pointer-events="none" x="0" y="5" font-size="10px" fill="#FFFFFF" font-family="sans-serif"> 11/30/2…</text></g><g class="node" transform="translate(22.704878577497787,43.753734772081074)"><circle class="outline" cx="0" cy="0" r="25" fill="#ECB5C9" stroke="#da7298" stroke-width="2px"/><text text-anchor="middle" pointer-events="none" font-family="sans-serif" dy="1.5625" font-size="25" fill="#2A2C34"/><text text-anchor="middle" pointer-events="none" x="0" y="5" font-size="10px" fill="#2A2C34" font-family="sans-serif"> ORD</text></g><g class="node" transform="translate(-1.3930571602459896,148.76456864797893)"><circle class="outline" cx="0" cy="0" r="25" fill="#4C8EDA" stroke="#2870c2" stroke-width="2px"/><text text-anchor="middle" pointer-events="none" font-family="sans-serif" dy="1.5625" font-size="25" fill="#FFFFFF"/><text text-anchor="middle" pointer-events="none" x="0" y="5" font-size="10px" fill="#FFFFFF" font-family="sans-serif"> 11/30/2…</text></g></g></svg>