<svg xmlns="http://www.w3.org/2000/svg" width="161.30543518066406" height="242.6284637451172" viewBox="0.4544658660888672 -20.676097869873047 161.30543518066406 242.6284637451172"><title>Neo4j Graph Visualization</title><desc>Created using Neo4j (http://www.neo4j.com/)</desc><g class="layer relationships"><g class="relationship" transform="translate(132.75989871357683 8.32390092484019) rotate(520.0588060657866)"><path class="outline" fill="#A5ABB6" stroke="none" d="M 21.40063509461097,12.933012701892217 L 21.90063509461097,12.06698729810778 A 59.924707142832254 59.924707142832254 0 0 0 39.299801612901746,18.76364477459356 L 39.09015207680672,19.741421370762197 A 60.924707142832254 60.924707142832254 0 0 1 21.40063509461097,12.933012701892217 Z M 60.941140666834755,20.415229320930088 L 60.7921345833172,19.426393041723692 A 59.924707142832254 59.924707142832254 0 0 0 78.57085373731088,13.814498341000833 L 77.23378261866738,11.128936793821287 L 85.06000920050374,11.14225932202924 L 80.35361522883555,17.39524707057356 L 79.01654411019204,14.709685523394016 A 60.924707142832254 60.924707142832254 0 0 1 60.941140666834755,20.415229320930088"/><text text-anchor="middle" pointer-events="none" font-size="8px" fill="#000000" x="50.00058760719115" y="23.56666760126027" transform="rotate(180 50.00058760719115 20.56666760126027)" font-family="sans-serif">trek</text></g><g class="relationship" transform="translate(31.761954032110292 44.966797794993816) rotate(451.23907848114317)"><path class="outline" fill="#A5ABB6" stroke="none" d="M 25 0.5 L 38.95399960541037 0.5 L 38.95399960541037 -0.5 L 25 -0.5 Z M 60.75399979614523 0.5 L 74.7079994015556 0.5 L 74.7079994015556 3.5 L 81.7079994015556 0 L 74.7079994015556 -3.5 L 74.7079994015556 -0.5 L 60.75399979614523 -0.5 Z"/><text text-anchor="middle" pointer-events="none" font-size="8px" fill="#000000" x="49.8539997007778" y="3" transform="rotate(180 49.8539997007778 0)" font-family="sans-serif">trek</text></g><g class="relationship" transform="translate(29.45446679608284 151.64984536553317) rotate(382.6119381482338)"><path class="outline" fill="#A5ABB6" stroke="none" d="M 25 0.5 L 39.31110786951722 0.5 L 39.31110786951722 -0.5 L 25 -0.5 Z M 61.111108060252086 0.5 L 75.42221592976931 0.5 L 75.42221592976931 3.5 L 82.42221592976931 0 L 75.42221592976931 -3.5 L 75.42221592976931 -0.5 L 61.111108060252086 -0.5 Z"/><text text-anchor="middle" pointer-events="none" font-size="8px" fill="#000000" x="50.211107964884654" y="3" font-family="sans-serif">trek</text></g><g class="relationship" transform="translate(132.75989871357683 8.32390092484019) rotate(520.0588060657866)"><path class="outline" fill="#A5ABB6" stroke="none" d="M 25 0.5 L 38.21984438016665 0.5 L 38.21984438016665 -0.5 L 25 -0.5 Z M 62.21984438016665 0.5 L 75.4396887603333 0.5 L 75.4396887603333 3.5 L 82.4396887603333 0 L 75.4396887603333 -3.5 L 75.4396887603333 -0.5 L 62.21984438016665 -0.5 Z"/><text text-anchor="middle" pointer-events="none" font-size="8px" fill="#000000" x="50.21984438016665" y="3" transform="rotate(180 50.21984438016665 0)" font-family="sans-serif">road</text></g><g class="relationship" transform="translate(132.75989871357683 8.32390092484019) rotate(520.0588060657866)"><path class="outline" fill="#A5ABB6" stroke="none" d="M 21.40063509461097,-12.933012701892217 L 21.90063509461097,-12.06698729810778 A 59.924707142832254 59.924707142832254 0 0 1 22.22380543296252,-12.252232931634992 L 21.729198372765822,-13.121349641866466 A 60.924707142832254 60.924707142832254 0 0 0 21.40063509461097,-12.933012701892217 Z M 78.67700082452306,-14.877420397131793 L 78.23688361401874,-13.979480064471602 A 59.924707142832254 59.924707142832254 0 0 1 78.57085373731088,-13.814498341000833 L 77.23378261866738,-11.128936793821287 L 85.06000920050374,-11.14225932202924 L 80.35361522883555,-17.39524707057356 L 79.01654411019204,-14.709685523394016 A 60.924707142832254 60.924707142832254 0 0 0 78.67700082452306,-14.877420397131793"/><text text-anchor="middle" pointer-events="none" font-size="8px" fill="#000000" x="50.00058760719114" y="-17.56666760126027" transform="rotate(180 50.00058760719114 -20.56666760126027)" font-family="sans-serif">PublicTrans…</text></g></g><g class="layer nodes"><g class="node" transform="translate(132.75989871357683,8.32390092484019)"><circle class="outline" cx="0" cy="0" r="25" fill="#F16667" stroke="#eb2728" stroke-width="2px"/><text text-anchor="middle" pointer-events="none" font-family="sans-serif" dy="1.5625" font-size="25" fill="#FFFFFF"/><text text-anchor="middle" pointer-events="none" x="0" y="5" font-size="10px" fill="#FFFFFF" font-family="sans-serif"> Darjeeli…</text></g><g class="node" transform="translate(128.6191504476186,192.95236334631514)"><circle class="outline" cx="0" cy="0" r="25" fill="#D9C8AE" stroke="#c0a378" stroke-width="2px"/><text text-anchor="middle" pointer-events="none" font-family="sans-serif" dy="1.5625" font-size="25" fill="#2A2C34"/><text text-anchor="middle" pointer-events="none" x="0" y="5" font-size="10px" fill="#2A2C34" font-family="sans-serif"> Sandak…</text></g><g class="node" transform="translate(31.761954032110292,44.966797794993816)"><circle class="outline" cx="0" cy="0" r="25" fill="#F16667" stroke="#eb2728" stroke-width="2px"/><text text-anchor="middle" pointer-events="none" font-family="sans-serif" dy="1.5625" font-size="25" fill="#FFFFFF"/><text text-anchor="middle" pointer-events="none" x="0" y="5" font-size="10px" fill="#FFFFFF" font-family="sans-serif"> Rimbik</text></g><g class="node" transform="translate(29.45446679608284,151.64984536553317)"><circle class="outline" cx="0" cy="0" r="25" fill="#8DCC93" stroke="#5db665" stroke-width="2px"/><text text-anchor="middle" pointer-events="none" font-family="sans-serif" dy="1.5625" font-size="25" fill="#2A2C34"/><text text-anchor="middle" pointer-events="none" x="0" y="5" font-size="10px" fill="#2A2C34" font-family="sans-serif"> BhikeB…</text></g></g></svg>