<svg xmlns="http://www.w3.org/2000/svg" width="624.76611328125" height="609.095703125" viewBox="-330.78033447265625 -253.12924194335938 624.76611328125 609.095703125"><title>Neo4j Graph Visualization</title><desc>Created using Neo4j (http://www.neo4j.com/)</desc><g class="layer relationships"><g class="relationship" transform="translate(-27.78655900706934 10.818848565293816) rotate(431.9225829147415)"><path class="outline" fill="#A5ABB6" stroke="none" d="M 25 0.5 L 62.84948947501961 0.5 L 62.84948947501961 -0.5 L 25 -0.5 Z M 108.41198947501961 0.5 L 146.26147895003922 0.5 L 146.26147895003922 3.5 L 153.26147895003922 0 L 146.26147895003922 -3.5 L 146.26147895003922 -0.5 L 108.41198947501961 -0.5 Z"/><text text-anchor="middle" pointer-events="none" font-size="8px" fill="#000000" x="85.63073947501961" y="3" font-family="sans-serif">ACTED_IN</text></g><g class="relationship" transform="translate(-27.78655900706934 10.818848565293816) rotate(328.5865306462393)"><path class="outline" fill="#A5ABB6" stroke="none" d="M 25 0.5 L 64.89795258402793 0.5 L 64.89795258402793 -0.5 L 25 -0.5 Z M 110.46045258402793 0.5 L 150.35840516805587 0.5 L 150.35840516805587 3.5 L 157.35840516805587 0 L 150.35840516805587 -3.5 L 150.35840516805587 -0.5 L 110.46045258402793 -0.5 Z"/><text text-anchor="middle" pointer-events="none" font-size="8px" fill="#000000" x="87.67920258402793" y="3" font-family="sans-serif">ACTED_IN</text></g><g class="relationship" transform="translate(-27.78655900706934 10.818848565293816) rotate(229.5189649097481)"><path class="outline" fill="#A5ABB6" stroke="none" d="M 25 0.5 L 68.88489374260321 0.5 L 68.88489374260321 -0.5 L 25 -0.5 Z M 114.44739374260321 0.5 L 158.33228748520642 0.5 L 158.33228748520642 3.5 L 165.33228748520642 0 L 158.33228748520642 -3.5 L 158.33228748520642 -0.5 L 114.44739374260321 -0.5 Z"/><text text-anchor="middle" pointer-events="none" font-size="8px" fill="#000000" x="91.66614374260321" y="3" transform="rotate(180 91.66614374260321 0)" font-family="sans-serif">ACTED_IN</text></g><g class="relationship" transform="translate(-27.78655900706934 10.818848565293816) rotate(527.4588309834321)"><path class="outline" fill="#A5ABB6" stroke="none" d="M 25 0.5 L 35.122491727630454 0.5 L 35.122491727630454 -0.5 L 25 -0.5 Z M 80.68499172763046 0.5 L 90.80748345526091 0.5 L 90.80748345526091 3.5 L 97.80748345526091 0 L 90.80748345526091 -3.5 L 90.80748345526091 -0.5 L 80.68499172763046 -0.5 Z"/><text text-anchor="middle" pointer-events="none" font-size="8px" fill="#000000" x="57.903741727630454" y="3" transform="rotate(180 57.903741727630454 0)" font-family="sans-serif">ACTED_IN</text></g><g class="relationship" transform="translate(-27.78655900706934 10.818848565293816) rotate(514.3869037890302)"><path class="outline" fill="#A5ABB6" stroke="none" d="M 25 0.5 L 81.19858850786308 0.5 L 81.19858850786308 -0.5 L 25 -0.5 Z M 126.76108850786308 0.5 L 182.95967701572616 0.5 L 182.95967701572616 3.5 L 189.95967701572616 0 L 182.95967701572616 -3.5 L 182.95967701572616 -0.5 L 126.76108850786308 -0.5 Z"/><text text-anchor="middle" pointer-events="none" font-size="8px" fill="#000000" x="103.97983850786308" y="3" transform="rotate(180 103.97983850786308 0)" font-family="sans-serif">ACTED_IN</text></g><g class="relationship" transform="translate(169.27882844117588 145.33076119977875) rotate(526.1493218172877)"><path class="outline" fill="#A5ABB6" stroke="none" d="M 25 0.5 L 46.716582126122944 0.5 L 46.716582126122944 -0.5 L 25 -0.5 Z M 92.27908212612294 0.5 L 113.99566425224589 0.5 L 113.99566425224589 3.5 L 120.99566425224589 0 L 113.99566425224589 -3.5 L 113.99566425224589 -0.5 L 92.27908212612294 -0.5 Z"/><text text-anchor="middle" pointer-events="none" font-size="8px" fill="#000000" x="69.49783212612294" y="3" transform="rotate(180 69.49783212612294 0)" font-family="sans-serif">ACTED_IN</text></g><g class="relationship" transform="translate(45.22163726028389 326.96643150063363) rotate(263.1221527848884)"><path class="outline" fill="#A5ABB6" stroke="none" d="M 25 0.5 L 47.593084367295134 0.5 L 47.593084367295134 -0.5 L 25 -0.5 Z M 93.15558436729513 0.5 L 115.74866873459027 0.5 L 115.74866873459027 3.5 L 122.74866873459027 0 L 115.74866873459027 -3.5 L 115.74866873459027 -0.5 L 93.15558436729513 -0.5 Z"/><text text-anchor="middle" pointer-events="none" font-size="8px" fill="#000000" x="70.37433436729513" y="3" transform="rotate(180 70.37433436729513 0)" font-family="sans-serif">ACTED_IN</text></g><g class="relationship" transform="translate(152.3297132431556 260.46633316896117) rotate(212.72088009533536)"><path class="outline" fill="#A5ABB6" stroke="none" d="M 25 0.5 L 47.889299588090594 0.5 L 47.889299588090594 -0.5 L 25 -0.5 Z M 93.4517995880906 0.5 L 116.34109917618119 0.5 L 116.34109917618119 3.5 L 123.34109917618119 0 L 116.34109917618119 -3.5 L 116.34109917618119 -0.5 L 93.4517995880906 -0.5 Z"/><text text-anchor="middle" pointer-events="none" font-size="8px" fill="#000000" x="70.6705495880906" y="3" transform="rotate(180 70.6705495880906 0)" font-family="sans-serif">ACTED_IN</text></g><g class="relationship" transform="translate(263.1935918741177 -144.26203205621286) rotate(516.0806141398982)"><path class="outline" fill="#A5ABB6" stroke="none" d="M 25 0.5 L 47.75213662137266 0.5 L 47.75213662137266 -0.5 L 25 -0.5 Z M 93.31463662137266 0.5 L 116.06677324274531 0.5 L 116.06677324274531 3.5 L 123.06677324274531 0 L 116.06677324274531 -3.5 L 116.06677324274531 -0.5 L 93.31463662137266 -0.5 Z"/><text text-anchor="middle" pointer-events="none" font-size="8px" fill="#000000" x="70.53338662137266" y="3" transform="rotate(180 70.53338662137266 0)" font-family="sans-serif">ACTED_IN</text></g><g class="relationship" transform="translate(264.9857452098475 -27.486462977900388) rotate(202.47699077325535)"><path class="outline" fill="#A5ABB6" stroke="none" d="M 25 0.5 L 47.92738828656937 0.5 L 47.92738828656937 -0.5 L 25 -0.5 Z M 93.48988828656937 0.5 L 116.41727657313874 0.5 L 116.41727657313874 3.5 L 123.41727657313874 0 L 116.41727657313874 -3.5 L 116.41727657313874 -0.5 L 93.48988828656937 -0.5 Z"/><text text-anchor="middle" pointer-events="none" font-size="8px" fill="#000000" x="70.70863828656937" y="3" transform="rotate(180 70.70863828656937 0)" font-family="sans-serif">ACTED_IN</text></g><g class="relationship" transform="translate(175.88963979326905 -224.12923702998484) rotate(468.9540721712939)"><path class="outline" fill="#A5ABB6" stroke="none" d="M 25 0.5 L 47.679461266592085 0.5 L 47.679461266592085 -0.5 L 25 -0.5 Z M 93.24196126659209 0.5 L 115.92142253318417 0.5 L 115.92142253318417 3.5 L 122.92142253318417 0 L 115.92142253318417 -3.5 L 115.92142253318417 -0.5 L 93.24196126659209 -0.5 Z"/><text text-anchor="middle" pointer-events="none" font-size="8px" fill="#000000" x="70.46071126659209" y="3" transform="rotate(180 70.46071126659209 0)" font-family="sans-serif">ACTED_IN</text></g><g class="relationship" transform="translate(61.715452923241294 -215.87798552436337) rotate(423.3295743213199)"><path class="outline" fill="#A5ABB6" stroke="none" d="M 25 0.5 L 47.3810649078399 0.5 L 47.3810649078399 -0.5 L 25 -0.5 Z M 92.9435649078399 0.5 L 115.3246298156798 0.5 L 115.3246298156798 3.5 L 122.3246298156798 0 L 115.3246298156798 -3.5 L 115.3246298156798 -0.5 L 92.9435649078399 -0.5 Z"/><text text-anchor="middle" pointer-events="none" font-size="8px" fill="#000000" x="70.1623149078399" y="3" font-family="sans-serif">ACTED_IN</text></g><g class="relationship" transform="translate(-212.55440181473244 -37.99728978796711) rotate(302.53185038675156)"><path class="outline" fill="#A5ABB6" stroke="none" d="M 25 0.5 L 30.62505658550429 0.5 L 30.62505658550429 -0.5 L 25 -0.5 Z M 76.1875565855043 0.5 L 81.81261317100858 0.5 L 81.81261317100858 3.5 L 88.81261317100858 0 L 81.81261317100858 -3.5 L 81.81261317100858 -0.5 L 76.1875565855043 -0.5 Z"/><text text-anchor="middle" pointer-events="none" font-size="8px" fill="#000000" x="53.40630658550429" y="3" font-family="sans-serif">ACTED_IN</text></g><g class="relationship" transform="translate(-212.55440181473244 -37.99728978796711) rotate(409.31520146054703)"><path class="outline" fill="#A5ABB6" stroke="none" d="M 25 0.5 L 25.713870257072912 0.5 L 25.713870257072912 -0.5 L 25 -0.5 Z M 66.82715150707291 0.5 L 67.54102176414582 0.5 L 67.54102176414582 3.5 L 74.54102176414582 0 L 67.54102176414582 -3.5 L 67.54102176414582 -0.5 L 66.82715150707291 -0.5 Z"/><text text-anchor="middle" pointer-events="none" font-size="8px" fill="#000000" x="46.27051088207291" y="3" font-family="sans-serif">ACTED…</text></g><g class="relationship" transform="translate(-212.55440181473244 -37.99728978796711) rotate(453.66076702122126)"><path class="outline" fill="#A5ABB6" stroke="none" d="M 25 0.5 L 44.734381929354015 0.5 L 44.734381929354015 -0.5 L 25 -0.5 Z M 90.29688192935402 0.5 L 110.03126385870803 0.5 L 110.03126385870803 3.5 L 117.03126385870803 0 L 110.03126385870803 -3.5 L 110.03126385870803 -0.5 L 90.29688192935402 -0.5 Z"/><text text-anchor="middle" pointer-events="none" font-size="8px" fill="#000000" x="67.51563192935402" y="3" transform="rotate(180 67.51563192935402 0)" font-family="sans-serif">ACTED_IN</text></g><g class="relationship" transform="translate(-294.7965749295673 -92.44867250962372) rotate(343.8633777187324)"><path class="outline" fill="#A5ABB6" stroke="none" d="M 25 0.5 L 48.38392861825987 0.5 L 48.38392861825987 -0.5 L 25 -0.5 Z M 93.94642861825987 0.5 L 117.33035723651975 0.5 L 117.33035723651975 3.5 L 124.33035723651975 0 L 117.33035723651975 -3.5 L 117.33035723651975 -0.5 L 93.94642861825987 -0.5 Z"/><text text-anchor="middle" pointer-events="none" font-size="8px" fill="#000000" x="71.16517861825987" y="3" font-family="sans-serif">ACTED_IN</text></g><g class="relationship" transform="translate(-294.7965749295673 -92.44867250962372) rotate(401.4479834551755)"><path class="outline" fill="#A5ABB6" stroke="none" d="M 25 0.5 L 71.86518472196266 0.5 L 71.86518472196266 -0.5 L 25 -0.5 Z M 117.42768472196266 0.5 L 164.29286944392533 0.5 L 164.29286944392533 3.5 L 171.29286944392533 0 L 164.29286944392533 -3.5 L 164.29286944392533 -0.5 L 117.42768472196266 -0.5 Z"/><text text-anchor="middle" pointer-events="none" font-size="8px" fill="#000000" x="94.64643472196266" y="3" font-family="sans-serif">ACTED_IN</text></g><g class="relationship" transform="translate(-294.7965749295673 -92.44867250962372) rotate(429.54610173364097)"><path class="outline" fill="#A5ABB6" stroke="none" d="M 25 0.5 L 78.41594468140488 0.5 L 78.41594468140488 -0.5 L 25 -0.5 Z M 123.97844468140488 0.5 L 177.39438936280976 0.5 L 177.39438936280976 3.5 L 184.39438936280976 0 L 177.39438936280976 -3.5 L 177.39438936280976 -0.5 L 123.97844468140488 -0.5 Z"/><text text-anchor="middle" pointer-events="none" font-size="8px" fill="#000000" x="101.19719468140488" y="3" font-family="sans-serif">ACTED_IN</text></g><g class="relationship" transform="translate(-301.7803470171862 5.829710164395129) rotate(317.1014961474958)"><path class="outline" fill="#A5ABB6" stroke="none" d="M 25 0.5 L 76.39336321765552 0.5 L 76.39336321765552 -0.5 L 25 -0.5 Z M 121.95586321765552 0.5 L 173.34922643531104 0.5 L 173.34922643531104 3.5 L 180.34922643531104 0 L 173.34922643531104 -3.5 L 173.34922643531104 -0.5 L 121.95586321765552 -0.5 Z"/><text text-anchor="middle" pointer-events="none" font-size="8px" fill="#000000" x="99.17461321765552" y="3" font-family="sans-serif">ACTED_IN</text></g><g class="relationship" transform="translate(-301.7803470171862 5.829710164395129) rotate(371.60717711462155)"><path class="outline" fill="#A5ABB6" stroke="none" d="M 25 0.5 L 52.385716292746 0.5 L 52.385716292746 -0.5 L 25 -0.5 Z M 97.948216292746 0.5 L 125.333932585492 0.5 L 125.333932585492 3.5 L 132.333932585492 0 L 125.333932585492 -3.5 L 125.333932585492 -0.5 L 97.948216292746 -0.5 Z"/><text text-anchor="middle" pointer-events="none" font-size="8px" fill="#000000" x="75.166966292746" y="3" font-family="sans-serif">ACTED_IN</text></g><g class="relationship" transform="translate(-301.7803470171862 5.829710164395129) rotate(410.6946257784491)"><path class="outline" fill="#A5ABB6" stroke="none" d="M 25 0.5 L 36.98890340922986 0.5 L 36.98890340922986 -0.5 L 25 -0.5 Z M 82.55140340922986 0.5 L 94.54030681845973 0.5 L 94.54030681845973 3.5 L 101.54030681845973 0 L 94.54030681845973 -3.5 L 94.54030681845973 -0.5 L 82.55140340922986 -0.5 Z"/><text text-anchor="middle" pointer-events="none" font-size="8px" fill="#000000" x="59.77015340922986" y="3" font-family="sans-serif">ACTED_IN</text></g><g class="relationship" transform="translate(-239.86789263540695 248.93016621444212) rotate(277.162583885902)"><path class="outline" fill="#A5ABB6" stroke="none" d="M 25 0.5 L 46.88269511738345 0.5 L 46.88269511738345 -0.5 L 25 -0.5 Z M 92.44519511738345 0.5 L 114.3278902347669 0.5 L 114.3278902347669 3.5 L 121.3278902347669 0 L 114.3278902347669 -3.5 L 114.3278902347669 -0.5 L 92.44519511738345 -0.5 Z"/><text text-anchor="middle" pointer-events="none" font-size="8px" fill="#000000" x="69.66394511738345" y="3" font-family="sans-serif">ACTED_IN</text></g></g><g class="layer nodes"><g class="node" aria-label="graph-node4" transform="translate(-27.78655900706934,10.818848565293816)"><circle class="outline" cx="0" cy="0" r="25" fill="#C990C0" stroke="#b261a5" stroke-width="2px"/><text class="caption" text-anchor="middle" pointer-events="none" x="0" y="0" font-size="10px" fill="#FFFFFF" font-family="sans-serif"> Hugo</text><text class="caption" text-anchor="middle" pointer-events="none" x="0" y="10" font-size="10px" fill="#FFFFFF" font-family="sans-serif"> Weavi…</text></g><g class="node" aria-label="graph-node105" transform="translate(27.528292244707647,180.28100395241574)"><circle class="outline" cx="0" cy="0" r="25" fill="#F79767" stroke="#f36924" stroke-width="2px"/><text class="caption" text-anchor="middle" pointer-events="none" x="0" y="0" font-size="10px" fill="#FFFFFF" font-family="sans-serif"> Cloud</text><text class="caption" text-anchor="middle" pointer-events="none" x="0" y="10" font-size="10px" fill="#FFFFFF" font-family="sans-serif"> Atlas</text></g><g class="node" aria-label="graph-node71" transform="translate(169.27882844117588,145.33076119977875)"><circle class="outline" cx="0" cy="0" r="25" fill="#C990C0" stroke="#b261a5" stroke-width="2px"/><text class="caption" text-anchor="middle" pointer-events="none" x="0" y="0" font-size="10px" fill="#FFFFFF" font-family="sans-serif"> Tom</text><text class="caption" text-anchor="middle" pointer-events="none" x="0" y="10" font-size="10px" fill="#FFFFFF" font-family="sans-serif"> Hanks</text></g><g class="node" aria-label="graph-node107" transform="translate(45.22163726028389,326.96643150063363)"><circle class="outline" cx="0" cy="0" r="25" fill="#C990C0" stroke="#b261a5" stroke-width="2px"/><text class="caption" text-anchor="middle" pointer-events="none" x="0" y="0" font-size="10px" fill="#FFFFFF" font-family="sans-serif"> Jim</text><text class="caption" text-anchor="middle" pointer-events="none" x="0" y="10" font-size="10px" fill="#FFFFFF" font-family="sans-serif"> Broad…</text></g><g class="node" aria-label="graph-node106" transform="translate(152.3297132431556,260.46633316896117)"><circle class="outline" cx="0" cy="0" r="25" fill="#C990C0" stroke="#b261a5" stroke-width="2px"/><text class="caption" text-anchor="middle" pointer-events="none" x="0" y="0" font-size="10px" fill="#FFFFFF" font-family="sans-serif"> Halle</text><text class="caption" text-anchor="middle" pointer-events="none" x="0" y="10" font-size="10px" fill="#FFFFFF" font-family="sans-serif"> Berry</text></g><g class="node" aria-label="graph-node116" transform="translate(127.84326331389191,-84.22822577044188)"><circle class="outline" cx="0" cy="0" r="25" fill="#F79767" stroke="#f36924" stroke-width="2px"/><text class="caption" text-anchor="middle" pointer-events="none" x="0" y="0" font-size="10px" fill="#FFFFFF" font-family="sans-serif"> V for</text><text class="caption" text-anchor="middle" pointer-events="none" x="0" y="10" font-size="10px" fill="#FFFFFF" font-family="sans-serif"> Vende…</text></g><g class="node" aria-label="graph-node119" transform="translate(263.1935918741177,-144.26203205621286)"><circle class="outline" cx="0" cy="0" r="25" fill="#C990C0" stroke="#b261a5" stroke-width="2px"/><text class="caption" text-anchor="middle" pointer-events="none" x="0" y="5" font-size="10px" fill="#FFFFFF" font-family="sans-serif"> John Hurt</text></g><g class="node" aria-label="graph-node118" transform="translate(264.9857452098475,-27.486462977900388)"><circle class="outline" cx="0" cy="0" r="25" fill="#C990C0" stroke="#b261a5" stroke-width="2px"/><text class="caption" text-anchor="middle" pointer-events="none" x="0" y="0" font-size="10px" fill="#FFFFFF" font-family="sans-serif"> Stephen</text><text class="caption" text-anchor="middle" pointer-events="none" x="0" y="10" font-size="10px" fill="#FFFFFF" font-family="sans-serif"> Rea</text></g><g class="node" aria-label="graph-node117" transform="translate(175.88963979326905,-224.12923702998484)"><circle class="outline" cx="0" cy="0" r="25" fill="#C990C0" stroke="#b261a5" stroke-width="2px"/><text class="caption" text-anchor="middle" pointer-events="none" x="0" y="0" font-size="10px" fill="#FFFFFF" font-family="sans-serif"> Natalie</text><text class="caption" text-anchor="middle" pointer-events="none" x="0" y="10" font-size="10px" fill="#FFFFFF" font-family="sans-serif"> Portm…</text></g><g class="node" aria-label="graph-node120" transform="translate(61.715452923241294,-215.87798552436337)"><circle class="outline" cx="0" cy="0" r="25" fill="#C990C0" stroke="#b261a5" stroke-width="2px"/><text class="caption" text-anchor="middle" pointer-events="none" x="0" y="5" font-size="10px" fill="#FFFFFF" font-family="sans-serif"> Ben Miles</text></g><g class="node" aria-label="graph-node10" transform="translate(-151.34957929489184,-133.95186558885555)"><circle class="outline" cx="0" cy="0" r="25" fill="#F79767" stroke="#f36924" stroke-width="2px"/><text class="caption" text-anchor="middle" pointer-events="none" x="0" y="-5" font-size="10px" fill="#FFFFFF" font-family="sans-serif"> The</text><text class="caption" text-anchor="middle" pointer-events="none" x="0" y="5" font-size="10px" fill="#FFFFFF" font-family="sans-serif"> Matrix</text><text class="caption" text-anchor="middle" pointer-events="none" x="0" y="15" font-size="10px" fill="#FFFFFF" font-family="sans-serif"> Rev…</text></g><g class="node" aria-label="graph-node3" transform="translate(-212.55440181473244,-37.99728978796711)"><circle class="outline" cx="0" cy="0" r="25" fill="#C990C0" stroke="#b261a5" stroke-width="2px"/><text class="caption" text-anchor="middle" pointer-events="none" x="0" y="0" font-size="10px" fill="#FFFFFF" font-family="sans-serif"> Laurence</text><text class="caption" text-anchor="middle" pointer-events="none" x="0" y="10" font-size="10px" fill="#FFFFFF" font-family="sans-serif"> Fishb…</text></g><g class="node" aria-label="graph-node2" transform="translate(-294.7965749295673,-92.44867250962372)"><circle class="outline" cx="0" cy="0" r="25" fill="#C990C0" stroke="#b261a5" stroke-width="2px"/><text class="caption" text-anchor="middle" pointer-events="none" x="0" y="5" font-size="10px" fill="#FFFFFF" font-family="sans-serif"> Carrie-A…</text></g><g class="node" aria-label="graph-node1" transform="translate(-301.7803470171862,5.829710164395129)"><circle class="outline" cx="0" cy="0" r="25" fill="#C990C0" stroke="#b261a5" stroke-width="2px"/><text class="caption" text-anchor="middle" pointer-events="none" x="0" y="0" font-size="10px" fill="#FFFFFF" font-family="sans-serif"> Keanu</text><text class="caption" text-anchor="middle" pointer-events="none" x="0" y="10" font-size="10px" fill="#FFFFFF" font-family="sans-serif"> Reeves</text></g><g class="node" aria-label="graph-node9" transform="translate(-147.66388485186226,37.48539579052573)"><circle class="outline" cx="0" cy="0" r="25" fill="#F79767" stroke="#f36924" stroke-width="2px"/><text class="caption" text-anchor="middle" pointer-events="none" x="0" y="-5" font-size="10px" fill="#FFFFFF" font-family="sans-serif"> The</text><text class="caption" text-anchor="middle" pointer-events="none" x="0" y="5" font-size="10px" fill="#FFFFFF" font-family="sans-serif"> Matrix</text><text class="caption" text-anchor="middle" pointer-events="none" x="0" y="15" font-size="10px" fill="#FFFFFF" font-family="sans-serif"> Rel…</text></g><g class="node" aria-label="graph-node0" transform="translate(-221.62295254251868,103.74416957025846)"><circle class="outline" cx="0" cy="0" r="25" fill="#F79767" stroke="#f36924" stroke-width="2px"/><text class="caption" text-anchor="middle" pointer-events="none" x="0" y="0" font-size="10px" fill="#FFFFFF" font-family="sans-serif"> The</text><text class="caption" text-anchor="middle" pointer-events="none" x="0" y="10" font-size="10px" fill="#FFFFFF" font-family="sans-serif"> Matrix</text></g><g class="node" aria-label="graph-node8" transform="translate(-239.86789263540695,248.93016621444212)"><circle class="outline" cx="0" cy="0" r="25" fill="#C990C0" stroke="#b261a5" stroke-width="2px"/><text class="caption" text-anchor="middle" pointer-events="none" x="0" y="0" font-size="10px" fill="#FFFFFF" font-family="sans-serif"> Emil</text><text class="caption" text-anchor="middle" pointer-events="none" x="0" y="10" font-size="10px" fill="#FFFFFF" font-family="sans-serif"> Eifrem</text></g></g></svg>