<svg xmlns="http://www.w3.org/2000/svg" width="210.28451538085938" height="236.49966430664062" viewBox="-73.8648910522461 -113.23316192626953 210.28451538085938 236.49966430664062"><title>Neo4j Graph Visualization</title><desc>Created using Neo4j (http://www.neo4j.com/)</desc><g class="layer relationships"><g class="relationship" transform="translate(107.41961413325357 15.035120236093084) rotate(499.19249077603115)"><path class="outline" fill="#A5ABB6" stroke="none" d="M 25 0.5 L 34.33771155900839 0.5 L 34.33771155900839 -0.5 L 25 -0.5 Z M 79.9002115590084 0.5 L 89.23792311801678 0.5 L 89.23792311801678 3.5 L 96.23792311801678 0 L 89.23792311801678 -3.5 L 89.23792311801678 -0.5 L 79.9002115590084 -0.5 Z"/><text text-anchor="middle" pointer-events="none" font-size="8px" fill="#000000" x="57.11896155900839" y="3" transform="rotate(180 57.11896155900839 0)" font-family="sans-serif">ACTED_IN</text></g><g class="relationship" transform="translate(107.41961413325357 15.035120236093084) rotate(213.14994956126753)"><path class="outline" fill="#A5ABB6" stroke="none" d="M 25 0.5 L 64.48545030287589 0.5 L 64.48545030287589 -0.5 L 25 -0.5 Z M 110.04795030287589 0.5 L 149.53340060575178 0.5 L 149.53340060575178 3.5 L 156.53340060575178 0 L 149.53340060575178 -3.5 L 149.53340060575178 -0.5 L 110.04795030287589 -0.5 Z"/><text text-anchor="middle" pointer-events="none" font-size="8px" fill="#000000" x="87.26670030287589" y="3" transform="rotate(180 87.26670030287589 0)" font-family="sans-serif">ACTED_IN</text></g><g class="relationship" transform="translate(107.41961413325357 15.035120236093084) rotate(539.891395827558)"><path class="outline" fill="#A5ABB6" stroke="none" d="M 25 0.5 L 49.86113966484662 0.5 L 49.86113966484662 -0.5 L 25 -0.5 Z M 95.42363966484662 0.5 L 120.28477932969324 0.5 L 120.28477932969324 3.5 L 127.28477932969324 0 L 120.28477932969324 -3.5 L 120.28477932969324 -0.5 L 95.42363966484662 -0.5 Z"/><text text-anchor="middle" pointer-events="none" font-size="8px" fill="#000000" x="72.64238966484662" y="3" transform="rotate(180 72.64238966484662 0)" font-family="sans-serif">ACTED_IN</text></g><g class="relationship" transform="translate(75.35534152258168 -78.75070253765217) rotate(469.03766466377243)"><path class="outline" fill="#A5ABB6" stroke="none" d="M 25 0.5 L 65.23277244472595 0.5 L 65.23277244472595 -0.5 L 25 -0.5 Z M 110.79527244472595 0.5 L 151.0280448894519 0.5 L 151.0280448894519 3.5 L 158.0280448894519 0 L 151.0280448894519 -3.5 L 151.0280448894519 -0.5 L 110.79527244472595 -0.5 Z"/><text text-anchor="middle" pointer-events="none" font-size="8px" fill="#000000" x="88.01402244472595" y="3" transform="rotate(180 88.01402244472595 0)" font-family="sans-serif">ACTED_IN</text></g><g class="relationship" transform="translate(75.35534152258168 -78.75070253765217) rotate(182.61753690126858)"><path class="outline" fill="#A5ABB6" stroke="none" d="M 25 0.5 L 33.74296295784126 0.5 L 33.74296295784126 -0.5 L 25 -0.5 Z M 79.30546295784126 0.5 L 88.04842591568251 0.5 L 88.04842591568251 3.5 L 95.04842591568251 0 L 88.04842591568251 -3.5 L 88.04842591568251 -0.5 L 79.30546295784126 -0.5 Z"/><text text-anchor="middle" pointer-events="none" font-size="8px" fill="#000000" x="56.52421295784126" y="3" transform="rotate(180 56.52421295784126 0)" font-family="sans-serif">ACTED_IN</text></g><g class="relationship" transform="translate(75.35534152258168 -78.75070253765217) rotate(501.9561855824945)"><path class="outline" fill="#A5ABB6" stroke="none" d="M 25 0.5 L 50.04520667622444 0.5 L 50.04520667622444 -0.5 L 25 -0.5 Z M 95.60770667622444 0.5 L 120.65291335244888 0.5 L 120.65291335244888 3.5 L 127.65291335244888 0 L 120.65291335244888 -3.5 L 120.65291335244888 -0.5 L 95.60770667622444 -0.5 Z"/><text text-anchor="middle" pointer-events="none" font-size="8px" fill="#000000" x="72.82645667622444" y="3" transform="rotate(180 72.82645667622444 0)" font-family="sans-serif">ACTED_IN</text></g></g><g class="layer nodes"><g class="node" aria-label="graph-node10" transform="translate(15.653489106606607,94.26650479779279)"><circle class="outline" cx="0" cy="0" r="25" fill="#F79767" stroke="#f36924" stroke-width="2px"/><text class="caption" text-anchor="middle" pointer-events="none" x="0" y="-5" font-size="10px" fill="#FFFFFF" font-family="sans-serif"> The</text><text class="caption" text-anchor="middle" pointer-events="none" x="0" y="5" font-size="10px" fill="#FFFFFF" font-family="sans-serif"> Matrix</text><text class="caption" text-anchor="middle" pointer-events="none" x="0" y="15" font-size="10px" fill="#FFFFFF" font-family="sans-serif"> Rev…</text></g><g class="node" aria-label="graph-node4" transform="translate(107.41961413325357,15.035120236093084)"><circle class="outline" cx="0" cy="0" r="25" fill="#C990C0" stroke="#b261a5" stroke-width="2px"/><text class="caption" text-anchor="middle" pointer-events="none" x="0" y="0" font-size="10px" fill="#FFFFFF" font-family="sans-serif"> Hugo</text><text class="caption" text-anchor="middle" pointer-events="none" x="0" y="10" font-size="10px" fill="#FFFFFF" font-family="sans-serif"> Weavi…</text></g><g class="node" aria-label="graph-node1" transform="translate(75.35534152258168,-78.75070253765217)"><circle class="outline" cx="0" cy="0" r="25" fill="#C990C0" stroke="#b261a5" stroke-width="2px"/><text class="caption" text-anchor="middle" pointer-events="none" x="0" y="0" font-size="10px" fill="#FFFFFF" font-family="sans-serif"> Keanu</text><text class="caption" text-anchor="middle" pointer-events="none" x="0" y="10" font-size="10px" fill="#FFFFFF" font-family="sans-serif"> Reeves</text></g><g class="node" aria-label="graph-node9" transform="translate(-44.567830480815395,-84.23316379850519)"><circle class="outline" cx="0" cy="0" r="25" fill="#F79767" stroke="#f36924" stroke-width="2px"/><text class="caption" text-anchor="middle" pointer-events="none" x="0" y="-5" font-size="10px" fill="#FFFFFF" font-family="sans-serif"> The</text><text class="caption" text-anchor="middle" pointer-events="none" x="0" y="5" font-size="10px" fill="#FFFFFF" font-family="sans-serif"> Matrix</text><text class="caption" text-anchor="middle" pointer-events="none" x="0" y="15" font-size="10px" fill="#FFFFFF" font-family="sans-serif"> Rel…</text></g><g class="node" aria-label="graph-node0" transform="translate(-44.86489162287514,15.323775921929354)"><circle class="outline" cx="0" cy="0" r="25" fill="#F79767" stroke="#f36924" stroke-width="2px"/><text class="caption" text-anchor="middle" pointer-events="none" x="0" y="0" font-size="10px" fill="#FFFFFF" font-family="sans-serif"> The</text><text class="caption" text-anchor="middle" pointer-events="none" x="0" y="10" font-size="10px" fill="#FFFFFF" font-family="sans-serif"> Matrix</text></g></g></svg>