<svg xmlns="http://www.w3.org/2000/svg" width="473.59967041015625" height="444.3514404296875" viewBox="-265.83892822265625 -189.0523681640625 473.59967041015625 444.3514404296875"><title>Neo4j Graph Visualization</title><desc>Created using Neo4j (http://www.neo4j.com/)</desc><g class="layer relationships"><g class="relationship" transform="translate(-129.7963827986979 226.29908694497954) rotate(296.3263688373657)"><path class="outline" fill="#A5ABB6" stroke="none" d="M 25 0.5 L 75.85828956320233 0.5 L 75.85828956320233 -0.5 L 25 -0.5 Z M 127.63953956320233 0.5 L 178.49782912640467 0.5 L 178.49782912640467 3.5 L 185.49782912640467 0 L 178.49782912640467 -3.5 L 178.49782912640467 -0.5 L 127.63953956320233 -0.5 Z"/><text text-anchor="middle" pointer-events="none" font-size="8px" fill="#000000" x="101.74891456320233" y="3" font-family="sans-serif">PRODUCED</text></g><g class="relationship" transform="translate(-60.14743559348463 160.1332839940085) rotate(280.9512652192214)"><path class="outline" fill="#A5ABB6" stroke="none" d="M 25 0.5 L 36.10470344937714 0.5 L 36.10470344937714 -0.5 L 25 -0.5 Z M 81.66720344937714 0.5 L 92.77190689875428 0.5 L 92.77190689875428 3.5 L 99.77190689875428 0 L 92.77190689875428 -3.5 L 92.77190689875428 -0.5 L 81.66720344937714 -0.5 Z"/><text text-anchor="middle" pointer-events="none" font-size="8px" fill="#000000" x="58.88595344937714" y="3" font-family="sans-serif">ACTED_IN</text></g><g class="relationship" transform="translate(11.954442830786778 224.4597039195478) rotate(255.47644753031693)"><path class="outline" fill="#A5ABB6" stroke="none" d="M 25 0.5 L 70.21539626286781 0.5 L 70.21539626286781 -0.5 L 25 -0.5 Z M 115.77789626286781 0.5 L 160.99329252573563 0.5 L 160.99329252573563 3.5 L 167.99329252573563 0 L 160.99329252573563 -3.5 L 160.99329252573563 -0.5 L 115.77789626286781 -0.5 Z"/><text text-anchor="middle" pointer-events="none" font-size="8px" fill="#000000" x="92.99664626286781" y="3" transform="rotate(180 92.99664626286781 0)" font-family="sans-serif">ACTED_IN</text></g><g class="relationship" transform="translate(33.247385371582325 129.38382699848407) rotate(232.7805196235937)"><path class="outline" fill="#A5ABB6" stroke="none" d="M 25 0.5 L 31.32734198984479 0.5 L 31.32734198984479 -0.5 L 25 -0.5 Z M 76.8898419898448 0.5 L 83.21718397968958 0.5 L 83.21718397968958 3.5 L 90.21718397968958 0 L 83.21718397968958 -3.5 L 83.21718397968958 -0.5 L 76.8898419898448 -0.5 Z"/><text text-anchor="middle" pointer-events="none" font-size="8px" fill="#000000" x="54.10859198984479" y="3" transform="rotate(180 54.10859198984479 0)" font-family="sans-serif">ACTED_IN</text></g><g class="relationship" transform="translate(105.69790108628462 193.25773819510584) rotate(227.59246408154843)"><path class="outline" fill="#A5ABB6" stroke="none" d="M 25 0.5 L 79.10281406938569 0.5 L 79.10281406938569 -0.5 L 25 -0.5 Z M 124.66531406938569 0.5 L 178.76812813877137 0.5 L 178.76812813877137 3.5 L 185.76812813877137 0 L 178.76812813877137 -3.5 L 178.76812813877137 -0.5 L 124.66531406938569 -0.5 Z"/><text text-anchor="middle" pointer-events="none" font-size="8px" fill="#000000" x="101.88406406938569" y="3" transform="rotate(180 101.88406406938569 0)" font-family="sans-serif">ACTED_IN</text></g><g class="relationship" transform="translate(178.7607399138397 15.642408404193336) rotate(534.1653568042243)"><path class="outline" fill="#A5ABB6" stroke="none" d="M 25 0.5 L 81.88147556544048 0.5 L 81.88147556544048 -0.5 L 25 -0.5 Z M 127.44397556544048 0.5 L 184.32545113088096 0.5 L 184.32545113088096 3.5 L 191.32545113088096 0 L 184.32545113088096 -3.5 L 184.32545113088096 -0.5 L 127.44397556544048 -0.5 Z"/><text text-anchor="middle" pointer-events="none" font-size="8px" fill="#000000" x="104.66272556544048" y="3" transform="rotate(180 104.66272556544048 0)" font-family="sans-serif">ACTED_IN</text></g><g class="relationship" transform="translate(126.93707822604001 99.15629118809335) rotate(200.63434285642364)"><path class="outline" fill="#A5ABB6" stroke="none" d="M 25 0.5 L 65.90364045456954 0.5 L 65.90364045456954 -0.5 L 25 -0.5 Z M 101.67707795456954 0.5 L 142.58071840913908 0.5 L 142.58071840913908 3.5 L 149.58071840913908 0 L 142.58071840913908 -3.5 L 142.58071840913908 -0.5 L 101.67707795456954 -0.5 Z"/><text text-anchor="middle" pointer-events="none" font-size="8px" fill="#000000" x="83.79035920456954" y="3" transform="rotate(180 83.79035920456954 0)" font-family="sans-serif">WROTE</text></g><g class="relationship" transform="translate(82.02807080896262 12.205179090563059) rotate(527.8860428251969)"><path class="outline" fill="#A5ABB6" stroke="none" d="M 25 0.5 L 39.19842837293031 0.5 L 39.19842837293031 -0.5 L 25 -0.5 Z M 74.97186587293031 0.5 L 89.17029424586062 0.5 L 89.17029424586062 3.5 L 96.17029424586062 0 L 89.17029424586062 -3.5 L 89.17029424586062 -0.5 L 74.97186587293031 -0.5 Z"/><text text-anchor="middle" pointer-events="none" font-size="8px" fill="#000000" x="57.08514712293031" y="3" transform="rotate(180 57.08514712293031 0)" font-family="sans-serif">WROTE</text></g><g class="relationship" transform="translate(39.37582214761349 -77.45153570564588) rotate(483.37750546144184)"><path class="outline" fill="#A5ABB6" stroke="none" d="M 25 0.5 L 42.62671945023199 0.5 L 42.62671945023199 -0.5 L 25 -0.5 Z M 88.18921945023199 0.5 L 105.81593890046398 0.5 L 105.81593890046398 3.5 L 112.81593890046398 0 L 105.81593890046398 -3.5 L 105.81593890046398 -0.5 L 88.18921945023199 -0.5 Z"/><text text-anchor="middle" pointer-events="none" font-size="8px" fill="#000000" x="65.40796945023199" y="3" transform="rotate(180 65.40796945023199 0)" font-family="sans-serif">ACTED_IN</text></g><g class="relationship" transform="translate(-11.429402452258847 -160.05236615955377) rotate(457.21171767409055)"><path class="outline" fill="#A5ABB6" stroke="none" d="M 25 0.5 L 72.68583901216414 0.5 L 72.68583901216414 -0.5 L 25 -0.5 Z M 119.57646401216414 0.5 L 167.26230302432828 0.5 L 167.26230302432828 3.5 L 174.26230302432828 0 L 167.26230302432828 -3.5 L 167.26230302432828 -0.5 L 119.57646401216414 -0.5 Z"/><text text-anchor="middle" pointer-events="none" font-size="8px" fill="#000000" x="96.13115151216414" y="3" transform="rotate(180 96.13115151216414 0)" font-family="sans-serif">DIRECTED</text></g><g class="relationship" transform="translate(134.4360604312366 -70.69426969608253) rotate(507.6277229205636)"><path class="outline" fill="#A5ABB6" stroke="none" d="M 25 0.5 L 74.8806570335516 0.5 L 74.8806570335516 -0.5 L 25 -0.5 Z M 120.4431570335516 0.5 L 170.3238140671032 0.5 L 170.3238140671032 3.5 L 177.3238140671032 0 L 170.3238140671032 -3.5 L 170.3238140671032 -0.5 L 120.4431570335516 -0.5 Z"/><text text-anchor="middle" pointer-events="none" font-size="8px" fill="#000000" x="97.6619070335516" y="3" transform="rotate(180 97.6619070335516 0)" font-family="sans-serif">ACTED_IN</text></g><g class="relationship" transform="translate(-110.2137041312041 -156.51400125317807) rotate(429.19485904691567)"><path class="outline" fill="#A5ABB6" stroke="none" d="M 25 0.5 L 77.56388760536332 0.5 L 77.56388760536332 -0.5 L 25 -0.5 Z M 123.12638760536332 0.5 L 175.69027521072664 0.5 L 175.69027521072664 3.5 L 182.69027521072664 0 L 175.69027521072664 -3.5 L 175.69027521072664 -0.5 L 123.12638760536332 -0.5 Z"/><text text-anchor="middle" pointer-events="none" font-size="8px" fill="#000000" x="100.34513760536332" y="3" font-family="sans-serif">ACTED_IN</text></g><g class="relationship" transform="translate(-155.35867880976457 -70.04023884595787) rotate(402.15993977727305)"><path class="outline" fill="#A5ABB6" stroke="none" d="M 25 0.5 L 53.928393524833695 0.5 L 53.928393524833695 -0.5 L 25 -0.5 Z M 99.4908935248337 0.5 L 128.4192870496674 0.5 L 128.4192870496674 3.5 L 135.4192870496674 0 L 128.4192870496674 -3.5 L 128.4192870496674 -0.5 L 99.4908935248337 -0.5 Z"/><text text-anchor="middle" pointer-events="none" font-size="8px" fill="#000000" x="76.7096435248337" y="3" font-family="sans-serif">ACTED_IN</text></g><g class="relationship" transform="translate(-236.83890631209266 -16.979670830364977) rotate(375.2445006830636)"><path class="outline" fill="#A5ABB6" stroke="none" d="M 25 0.5 L 77.57046825270865 0.5 L 77.57046825270865 -0.5 L 25 -0.5 Z M 123.13296825270865 0.5 L 175.7034365054173 0.5 L 175.7034365054173 3.5 L 182.7034365054173 0 L 175.7034365054173 -3.5 L 175.7034365054173 -0.5 L 123.13296825270865 -0.5 Z"/><text text-anchor="middle" pointer-events="none" font-size="8px" fill="#000000" x="100.35171825270865" y="3" font-family="sans-serif">ACTED_IN</text></g><g class="relationship" transform="translate(-152.50946506717494 29.9008845275245) rotate(363.8116182953159)"><path class="outline" fill="#A5ABB6" stroke="none" d="M 25 0.5 L 31.880124531126405 0.5 L 31.880124531126405 -0.5 L 25 -0.5 Z M 77.4426245311264 0.5 L 84.32274906225281 0.5 L 84.32274906225281 3.5 L 91.32274906225281 0 L 84.32274906225281 -3.5 L 84.32274906225281 -0.5 L 77.4426245311264 -0.5 Z"/><text text-anchor="middle" pointer-events="none" font-size="8px" fill="#000000" x="54.661374531126405" y="3" font-family="sans-serif">ACTED_IN</text></g><g class="relationship" transform="translate(-235.1376040537466 81.27047275166738) rotate(347.6134038714199)"><path class="outline" fill="#A5ABB6" stroke="none" d="M 25 0.5 L 75.43320102329011 0.5 L 75.43320102329011 -0.5 L 25 -0.5 Z M 120.99570102329011 0.5 L 171.42890204658022 0.5 L 171.42890204658022 3.5 L 178.42890204658022 0 L 171.42890204658022 -3.5 L 171.42890204658022 -0.5 L 120.99570102329011 -0.5 Z"/><text text-anchor="middle" pointer-events="none" font-size="8px" fill="#000000" x="98.21445102329011" y="3" font-family="sans-serif">ACTED_IN</text></g><g class="relationship" transform="translate(-57.85601119551196 -75.08762636233044) rotate(439.2445051741373)"><path class="outline" fill="#A5ABB6" stroke="none" d="M 25 0.5 L 31.08717389608413 0.5 L 31.08717389608413 -0.5 L 25 -0.5 Z M 76.64967389608412 0.5 L 82.73684779216826 0.5 L 82.73684779216826 3.5 L 89.73684779216826 0 L 82.73684779216826 -3.5 L 82.73684779216826 -0.5 L 76.64967389608412 -0.5 Z"/><text text-anchor="middle" pointer-events="none" font-size="8px" fill="#000000" x="53.86842389608413" y="3" font-family="sans-serif">ACTED_IN</text></g><g class="relationship" transform="translate(-150.8866583281857 131.06808346261366) rotate(320.77073887116336)"><path class="outline" fill="#A5ABB6" stroke="none" d="M 25 0.5 L 47.58877647698864 0.5 L 47.58877647698864 -0.5 L 25 -0.5 Z M 93.15127647698864 0.5 L 115.74005295397728 0.5 L 115.74005295397728 3.5 L 122.74005295397728 0 L 115.74005295397728 -3.5 L 115.74005295397728 -0.5 L 93.15127647698864 -0.5 Z"/><text text-anchor="middle" pointer-events="none" font-size="8px" fill="#000000" x="70.37002647698864" y="3" font-family="sans-serif">ACTED_IN</text></g></g><g class="layer nodes"><g class="node" aria-label="graph-node171" transform="translate(-36.44402088805123,37.63358243333674)"><circle class="outline" cx="0" cy="0" r="25" fill="#F79767" stroke="#f36924" stroke-width="2px"/><text class="caption" text-anchor="middle" pointer-events="none" x="0" y="-5" font-size="10px" fill="#FFFFFF" font-family="sans-serif"> Captain</text><text class="caption" text-anchor="middle" pointer-events="none" x="0" y="5" font-size="10px" fill="#FFFFFF" font-family="sans-serif"> America:</text><text class="caption" text-anchor="middle" pointer-events="none" x="0" y="15" font-size="10px" fill="#FFFFFF" font-family="sans-serif"> Th</text></g><g class="node" aria-label="graph-node175" transform="translate(-129.7963827986979,226.29908694497954)"><circle class="outline" cx="0" cy="0" r="25" fill="#C990C0" stroke="#b261a5" stroke-width="2px"/><text class="caption" text-anchor="middle" pointer-events="none" x="0" y="0" font-size="10px" fill="#FFFFFF" font-family="sans-serif"> Kevin</text><text class="caption" text-anchor="middle" pointer-events="none" x="0" y="10" font-size="10px" fill="#FFFFFF" font-family="sans-serif"> Feige</text></g><g class="node" aria-label="graph-node186" transform="translate(-60.14743559348463,160.1332839940085)"><circle class="outline" cx="0" cy="0" r="25" fill="#C990C0" stroke="#b261a5" stroke-width="2px"/><text class="caption" text-anchor="middle" pointer-events="none" x="0" y="0" font-size="10px" fill="#FFFFFF" font-family="sans-serif"> Derek</text><text class="caption" text-anchor="middle" pointer-events="none" x="0" y="10" font-size="10px" fill="#FFFFFF" font-family="sans-serif"> Luke</text></g><g class="node" aria-label="graph-node183" transform="translate(11.954442830786778,224.4597039195478)"><circle class="outline" cx="0" cy="0" r="25" fill="#C990C0" stroke="#b261a5" stroke-width="2px"/><text class="caption" text-anchor="middle" pointer-events="none" x="0" y="0" font-size="10px" fill="#FFFFFF" font-family="sans-serif"> Samuel L.</text><text class="caption" text-anchor="middle" pointer-events="none" x="0" y="10" font-size="10px" fill="#FFFFFF" font-family="sans-serif"> Jackson</text></g><g class="node" aria-label="graph-node182" transform="translate(33.247385371582325,129.38382699848407)"><circle class="outline" cx="0" cy="0" r="25" fill="#C990C0" stroke="#b261a5" stroke-width="2px"/><text class="caption" text-anchor="middle" pointer-events="none" x="0" y="0" font-size="10px" fill="#FFFFFF" font-family="sans-serif"> Stanley</text><text class="caption" text-anchor="middle" pointer-events="none" x="0" y="10" font-size="10px" fill="#FFFFFF" font-family="sans-serif"> Tucci</text></g><g class="node" aria-label="graph-node4" transform="translate(105.69790108628462,193.25773819510584)"><circle class="outline" cx="0" cy="0" r="25" fill="#C990C0" stroke="#b261a5" stroke-width="2px"/><text class="caption" text-anchor="middle" pointer-events="none" x="0" y="0" font-size="10px" fill="#FFFFFF" font-family="sans-serif"> Hugo</text><text class="caption" text-anchor="middle" pointer-events="none" x="0" y="10" font-size="10px" fill="#FFFFFF" font-family="sans-serif"> Weavi…</text></g><g class="node" aria-label="graph-node177" transform="translate(178.7607399138397,15.642408404193336)"><circle class="outline" cx="0" cy="0" r="25" fill="#C990C0" stroke="#b261a5" stroke-width="2px"/><text class="caption" text-anchor="middle" pointer-events="none" x="0" y="0" font-size="10px" fill="#FFFFFF" font-family="sans-serif"> Hayley</text><text class="caption" text-anchor="middle" pointer-events="none" x="0" y="10" font-size="10px" fill="#FFFFFF" font-family="sans-serif"> Atwell</text></g><g class="node" aria-label="graph-node174" transform="translate(126.93707822604001,99.15629118809335)"><circle class="outline" cx="0" cy="0" r="25" fill="#C990C0" stroke="#b261a5" stroke-width="2px"/><text class="caption" text-anchor="middle" pointer-events="none" x="0" y="0" font-size="10px" fill="#FFFFFF" font-family="sans-serif"> Stephen</text><text class="caption" text-anchor="middle" pointer-events="none" x="0" y="10" font-size="10px" fill="#FFFFFF" font-family="sans-serif"> McFe…</text></g><g class="node" aria-label="graph-node173" transform="translate(82.02807080896262,12.205179090563059)"><circle class="outline" cx="0" cy="0" r="25" fill="#C990C0" stroke="#b261a5" stroke-width="2px"/><text class="caption" text-anchor="middle" pointer-events="none" x="0" y="5" font-size="10px" fill="#FFFFFF" font-family="sans-serif"> Christop…</text></g><g class="node" aria-label="graph-node179" transform="translate(39.37582214761349,-77.45153570564588)"><circle class="outline" cx="0" cy="0" r="25" fill="#C990C0" stroke="#b261a5" stroke-width="2px"/><text class="caption" text-anchor="middle" pointer-events="none" x="0" y="0" font-size="10px" fill="#FFFFFF" font-family="sans-serif"> Tommy</text><text class="caption" text-anchor="middle" pointer-events="none" x="0" y="10" font-size="10px" fill="#FFFFFF" font-family="sans-serif"> J…</text></g><g class="node" aria-label="graph-node172" transform="translate(-11.429402452258847,-160.05236615955377)"><circle class="outline" cx="0" cy="0" r="25" fill="#C990C0" stroke="#b261a5" stroke-width="2px"/><text class="caption" text-anchor="middle" pointer-events="none" x="0" y="0" font-size="10px" fill="#FFFFFF" font-family="sans-serif"> Joe</text><text class="caption" text-anchor="middle" pointer-events="none" x="0" y="10" font-size="10px" fill="#FFFFFF" font-family="sans-serif"> Johnst…</text></g><g class="node" aria-label="graph-node185" transform="translate(134.4360604312366,-70.69426969608253)"><circle class="outline" cx="0" cy="0" r="25" fill="#C990C0" stroke="#b261a5" stroke-width="2px"/><text class="caption" text-anchor="middle" pointer-events="none" x="0" y="0" font-size="10px" fill="#FFFFFF" font-family="sans-serif"> Neal</text><text class="caption" text-anchor="middle" pointer-events="none" x="0" y="10" font-size="10px" fill="#FFFFFF" font-family="sans-serif"> McDo…</text></g><g class="node" aria-label="graph-node188" transform="translate(-110.2137041312041,-156.51400125317807)"><circle class="outline" cx="0" cy="0" r="25" fill="#C990C0" stroke="#b261a5" stroke-width="2px"/><text class="caption" text-anchor="middle" pointer-events="none" x="0" y="5" font-size="10px" fill="#FFFFFF" font-family="sans-serif"> JJ Feild</text></g><g class="node" aria-label="graph-node181" transform="translate(-155.35867880976457,-70.04023884595787)"><circle class="outline" cx="0" cy="0" r="25" fill="#C990C0" stroke="#b261a5" stroke-width="2px"/><text class="caption" text-anchor="middle" pointer-events="none" x="0" y="0" font-size="10px" fill="#FFFFFF" font-family="sans-serif"> Richard</text><text class="caption" text-anchor="middle" pointer-events="none" x="0" y="10" font-size="10px" fill="#FFFFFF" font-family="sans-serif"> Armita…</text></g><g class="node" aria-label="graph-node176" transform="translate(-236.83890631209266,-16.979670830364977)"><circle class="outline" cx="0" cy="0" r="25" fill="#C990C0" stroke="#b261a5" stroke-width="2px"/><text class="caption" text-anchor="middle" pointer-events="none" x="0" y="0" font-size="10px" fill="#FFFFFF" font-family="sans-serif"> Chris</text><text class="caption" text-anchor="middle" pointer-events="none" x="0" y="10" font-size="10px" fill="#FFFFFF" font-family="sans-serif"> Evans</text></g><g class="node" aria-label="graph-node187" transform="translate(-152.50946506717494,29.9008845275245)"><circle class="outline" cx="0" cy="0" r="25" fill="#C990C0" stroke="#b261a5" stroke-width="2px"/><text class="caption" text-anchor="middle" pointer-events="none" x="0" y="0" font-size="10px" fill="#FFFFFF" font-family="sans-serif"> Kenneth</text><text class="caption" text-anchor="middle" pointer-events="none" x="0" y="10" font-size="10px" fill="#FFFFFF" font-family="sans-serif"> Choi</text></g><g class="node" aria-label="graph-node180" transform="translate(-235.1376040537466,81.27047275166738)"><circle class="outline" cx="0" cy="0" r="25" fill="#C990C0" stroke="#b261a5" stroke-width="2px"/><text class="caption" text-anchor="middle" pointer-events="none" x="0" y="0" font-size="10px" fill="#FFFFFF" font-family="sans-serif"> Dominic</text><text class="caption" text-anchor="middle" pointer-events="none" x="0" y="10" font-size="10px" fill="#FFFFFF" font-family="sans-serif"> Cooper</text></g><g class="node" aria-label="graph-node178" transform="translate(-57.85601119551196,-75.08762636233044)"><circle class="outline" cx="0" cy="0" r="25" fill="#C990C0" stroke="#b261a5" stroke-width="2px"/><text class="caption" text-anchor="middle" pointer-events="none" x="0" y="0" font-size="10px" fill="#FFFFFF" font-family="sans-serif"> Sebastian</text><text class="caption" text-anchor="middle" pointer-events="none" x="0" y="10" font-size="10px" fill="#FFFFFF" font-family="sans-serif"> Stan</text></g><g class="node" aria-label="graph-node184" transform="translate(-150.8866583281857,131.06808346261366)"><circle class="outline" cx="0" cy="0" r="25" fill="#C990C0" stroke="#b261a5" stroke-width="2px"/><text class="caption" text-anchor="middle" pointer-events="none" x="0" y="0" font-size="10px" fill="#FFFFFF" font-family="sans-serif"> Toby</text><text class="caption" text-anchor="middle" pointer-events="none" x="0" y="10" font-size="10px" fill="#FFFFFF" font-family="sans-serif"> Jones</text></g></g></svg>