<svg xmlns="http://www.w3.org/2000/svg" width="488.427490234375" height="517.8261108398438" viewBox="-210.27464294433594 -241.05751037597656 488.427490234375 517.8261108398438"><title>Neo4j Graph Visualization</title><desc>Created using Neo4j (http://www.neo4j.com/)</desc><g class="layer relationships"><g class="relationship" transform="translate(135.30609665361712 125.1960927265871) rotate(482.87049756525516)"><path class="outline" fill="#A5ABB6" stroke="none" d="M 25 0.5 L 46.687319701357936 0.5 L 46.687319701357936 -0.5 L 25 -0.5 Z M 92.24981970135794 0.5 L 113.93713940271587 0.5 L 113.93713940271587 3.5 L 120.93713940271587 0 L 113.93713940271587 -3.5 L 113.93713940271587 -0.5 L 92.24981970135794 -0.5 Z"/><text text-anchor="middle" pointer-events="none" font-size="8px" fill="#000000" x="69.46856970135794" y="3" transform="rotate(180 69.46856970135794 0)" font-family="sans-serif">ACTED_IN</text></g><g class="relationship" transform="translate(135.30609665361712 125.1960927265871) rotate(397.2180510434937)"><path class="outline" fill="#A5ABB6" stroke="none" d="M 25 0.5 L 45.20006031757373 0.5 L 45.20006031757373 -0.5 L 25 -0.5 Z M 90.76256031757373 0.5 L 110.96262063514746 0.5 L 110.96262063514746 3.5 L 117.96262063514746 0 L 110.96262063514746 -3.5 L 110.96262063514746 -0.5 L 90.76256031757373 -0.5 Z"/><text text-anchor="middle" pointer-events="none" font-size="8px" fill="#000000" x="67.98131031757373" y="3" font-family="sans-serif">ACTED_IN</text></g><g class="relationship" transform="translate(135.30609665361712 125.1960927265871) rotate(244.5896197252123)"><path class="outline" fill="#A5ABB6" stroke="none" d="M 25 0.5 L 52.20584033649911 0.5 L 52.20584033649911 -0.5 L 25 -0.5 Z M 97.76834033649911 0.5 L 124.97418067299822 0.5 L 124.97418067299822 3.5 L 131.97418067299822 0 L 124.97418067299822 -3.5 L 124.97418067299822 -0.5 L 97.76834033649911 -0.5 Z"/><text text-anchor="middle" pointer-events="none" font-size="8px" fill="#000000" x="74.98709033649911" y="3" transform="rotate(180 74.98709033649911 0)" font-family="sans-serif">ACTED_IN</text></g><g class="relationship" transform="translate(135.30609665361712 125.1960927265871) rotate(281.86346343016936)"><path class="outline" fill="#A5ABB6" stroke="none" d="M 25 0.5 L 49.94032699967131 0.5 L 49.94032699967131 -0.5 L 25 -0.5 Z M 95.50282699967131 0.5 L 120.44315399934263 0.5 L 120.44315399934263 3.5 L 127.44315399934263 0 L 120.44315399934263 -3.5 L 120.44315399934263 -0.5 L 95.50282699967131 -0.5 Z"/><text text-anchor="middle" pointer-events="none" font-size="8px" fill="#000000" x="72.72157699967131" y="3" font-family="sans-serif">ACTED_IN</text></g><g class="relationship" transform="translate(192.09600961592022 -146.5244027971269) rotate(493.6956814915892)"><path class="outline" fill="#A5ABB6" stroke="none" d="M 25 0.5 L 63.5727786229199 0.5 L 63.5727786229199 -0.5 L 25 -0.5 Z M 109.1352786229199 0.5 L 147.7080572458398 0.5 L 147.7080572458398 3.5 L 154.7080572458398 0 L 147.7080572458398 -3.5 L 147.7080572458398 -0.5 L 109.1352786229199 -0.5 Z"/><text text-anchor="middle" pointer-events="none" font-size="8px" fill="#000000" x="86.3540286229199" y="3" transform="rotate(180 86.3540286229199 0)" font-family="sans-serif">ACTED_IN</text></g><g class="relationship" transform="translate(192.09600961592022 -146.5244027971269) rotate(461.7336947099867)"><path class="outline" fill="#A5ABB6" stroke="none" d="M 25 0.5 L 36.2930841137535 0.5 L 36.2930841137535 -0.5 L 25 -0.5 Z M 81.85558411375351 0.5 L 93.148668227507 0.5 L 93.148668227507 3.5 L 100.148668227507 0 L 93.148668227507 -3.5 L 93.148668227507 -0.5 L 81.85558411375351 -0.5 Z"/><text text-anchor="middle" pointer-events="none" font-size="8px" fill="#000000" x="59.0743341137535" y="3" transform="rotate(180 59.0743341137535 0)" font-family="sans-serif">ACTED_IN</text></g><g class="relationship" transform="translate(93.86557978336543 -162.19661328425252) rotate(460.0926713924071)"><path class="outline" fill="#A5ABB6" stroke="none" d="M 25 0.5 L 47.66532332692887 0.5 L 47.66532332692887 -0.5 L 25 -0.5 Z M 93.22782332692887 0.5 L 115.89314665385774 0.5 L 115.89314665385774 3.5 L 122.89314665385774 0 L 115.89314665385774 -3.5 L 115.89314665385774 -0.5 L 93.22782332692887 -0.5 Z"/><text text-anchor="middle" pointer-events="none" font-size="8px" fill="#000000" x="70.44657332692887" y="3" transform="rotate(180 70.44657332692887 0)" font-family="sans-serif">ACTED_IN</text></g><g class="relationship" transform="translate(93.86557978336543 -162.19661328425252) rotate(422.22848636865456)"><path class="outline" fill="#A5ABB6" stroke="none" d="M 25 0.5 L 51.817588483284965 0.5 L 51.817588483284965 -0.5 L 25 -0.5 Z M 97.38008848328496 0.5 L 124.19767696656993 0.5 L 124.19767696656993 3.5 L 131.19767696656993 0 L 124.19767696656993 -3.5 L 124.19767696656993 -0.5 L 97.38008848328496 -0.5 Z"/><text text-anchor="middle" pointer-events="none" font-size="8px" fill="#000000" x="74.59883848328496" y="3" font-family="sans-serif">ACTED_IN</text></g><g class="relationship" transform="translate(-39.13013095632446 -73.89879672917421) rotate(249.48912082561185)"><path class="outline" fill="#A5ABB6" stroke="none" d="M 25 0.5 L 47.473758646954224 0.5 L 47.473758646954224 -0.5 L 25 -0.5 Z M 93.03625864695422 0.5 L 115.51001729390845 0.5 L 115.51001729390845 3.5 L 122.51001729390845 0 L 115.51001729390845 -3.5 L 115.51001729390845 -0.5 L 93.03625864695422 -0.5 Z"/><text text-anchor="middle" pointer-events="none" font-size="8px" fill="#000000" x="70.25500864695422" y="3" transform="rotate(180 70.25500864695422 0)" font-family="sans-serif">ACTED_IN</text></g><g class="relationship" transform="translate(-39.13013095632446 -73.89879672917421) rotate(201.2332833766231)"><path class="outline" fill="#A5ABB6" stroke="none" d="M 25 0.5 L 47.794485365058435 0.5 L 47.794485365058435 -0.5 L 25 -0.5 Z M 93.35698536505843 0.5 L 116.15147073011687 0.5 L 116.15147073011687 3.5 L 123.15147073011687 0 L 116.15147073011687 -3.5 L 116.15147073011687 -0.5 L 93.35698536505843 -0.5 Z"/><text text-anchor="middle" pointer-events="none" font-size="8px" fill="#000000" x="70.57573536505843" y="3" transform="rotate(180 70.57573536505843 0)" font-family="sans-serif">ACTED_IN</text></g><g class="relationship" transform="translate(-39.13013095632446 -73.89879672917421) rotate(478.19476355639125)"><path class="outline" fill="#A5ABB6" stroke="none" d="M 25 0.5 L 48.417823252856635 0.5 L 48.417823252856635 -0.5 L 25 -0.5 Z M 93.98032325285664 0.5 L 117.39814650571327 0.5 L 117.39814650571327 3.5 L 124.39814650571327 0 L 117.39814650571327 -3.5 L 117.39814650571327 -0.5 L 93.98032325285664 -0.5 Z"/><text text-anchor="middle" pointer-events="none" font-size="8px" fill="#000000" x="71.19907325285664" y="3" transform="rotate(180 71.19907325285664 0)" font-family="sans-serif">ACTED_IN</text></g><g class="relationship" transform="translate(-39.13013095632446 -73.89879672917421) rotate(521.6376683656209)"><path class="outline" fill="#A5ABB6" stroke="none" d="M 25 0.5 L 48.60390941224256 0.5 L 48.60390941224256 -0.5 L 25 -0.5 Z M 94.16640941224256 0.5 L 117.77031882448512 0.5 L 117.77031882448512 3.5 L 124.77031882448512 0 L 117.77031882448512 -3.5 L 117.77031882448512 -0.5 L 94.16640941224256 -0.5 Z"/><text text-anchor="middle" pointer-events="none" font-size="8px" fill="#000000" x="71.38515941224256" y="3" transform="rotate(180 71.38515941224256 0)" font-family="sans-serif">ACTED_IN</text></g><g class="relationship" transform="translate(-39.13013095632446 -73.89879672917421) rotate(388.1549410446868)"><path class="outline" fill="#A5ABB6" stroke="none" d="M 25 0.5 L 34.44340543417948 0.5 L 34.44340543417948 -0.5 L 25 -0.5 Z M 80.00590543417948 0.5 L 89.44931086835896 0.5 L 89.44931086835896 3.5 L 96.44931086835896 0 L 89.44931086835896 -3.5 L 89.44931086835896 -0.5 L 80.00590543417948 -0.5 Z"/><text text-anchor="middle" pointer-events="none" font-size="8px" fill="#000000" x="57.22465543417948" y="3" font-family="sans-serif">ACTED_IN</text></g><g class="relationship" transform="translate(-39.13013095632446 -73.89879672917421) rotate(373.63301833667333)"><path class="outline" fill="#A5ABB6" stroke="none" d="M 25 0.5 L 79.58937796022181 0.5 L 79.58937796022181 -0.5 L 25 -0.5 Z M 125.15187796022181 0.5 L 179.74125592044362 0.5 L 179.74125592044362 3.5 L 186.74125592044362 0 L 179.74125592044362 -3.5 L 179.74125592044362 -0.5 L 125.15187796022181 -0.5 Z"/><text text-anchor="middle" pointer-events="none" font-size="8px" fill="#000000" x="102.37062796022181" y="3" font-family="sans-serif">ACTED_IN</text></g></g><g class="layer nodes"><g class="node" aria-label="graph-node4" transform="translate(135.30609665361712,125.1960927265871)"><circle class="outline" cx="0" cy="0" r="25" fill="#C990C0" stroke="#b261a5" stroke-width="2px"/><text class="caption" text-anchor="middle" pointer-events="none" x="0" y="0" font-size="10px" fill="#FFFFFF" font-family="sans-serif"> Hugo</text><text class="caption" text-anchor="middle" pointer-events="none" x="0" y="10" font-size="10px" fill="#FFFFFF" font-family="sans-serif"> Weavi…</text></g><g class="node" aria-label="graph-node105" transform="translate(56.09987511211797,247.7686146316482)"><circle class="outline" cx="0" cy="0" r="25" fill="#F79767" stroke="#f36924" stroke-width="2px"/><text class="caption" text-anchor="middle" pointer-events="none" x="0" y="0" font-size="10px" fill="#FFFFFF" font-family="sans-serif"> Cloud</text><text class="caption" text-anchor="middle" pointer-events="none" x="0" y="10" font-size="10px" fill="#FFFFFF" font-family="sans-serif"> Atlas</text></g><g class="node" aria-label="graph-node116" transform="translate(249.1528641153956,211.66703835211396)"><circle class="outline" cx="0" cy="0" r="25" fill="#F79767" stroke="#f36924" stroke-width="2px"/><text class="caption" text-anchor="middle" pointer-events="none" x="0" y="0" font-size="10px" fill="#FFFFFF" font-family="sans-serif"> V for</text><text class="caption" text-anchor="middle" pointer-events="none" x="0" y="10" font-size="10px" fill="#FFFFFF" font-family="sans-serif"> Vende…</text></g><g class="node" aria-label="graph-node10" transform="translate(67.9486666713465,-16.592023926899046)"><circle class="outline" cx="0" cy="0" r="25" fill="#F79767" stroke="#f36924" stroke-width="2px"/><text class="caption" text-anchor="middle" pointer-events="none" x="0" y="-5" font-size="10px" fill="#FFFFFF" font-family="sans-serif"> The</text><text class="caption" text-anchor="middle" pointer-events="none" x="0" y="5" font-size="10px" fill="#FFFFFF" font-family="sans-serif"> Matrix</text><text class="caption" text-anchor="middle" pointer-events="none" x="0" y="15" font-size="10px" fill="#FFFFFF" font-family="sans-serif"> Rev…</text></g><g class="node" aria-label="graph-node9" transform="translate(166.645385335321,-23.990918055826914)"><circle class="outline" cx="0" cy="0" r="25" fill="#F79767" stroke="#f36924" stroke-width="2px"/><text class="caption" text-anchor="middle" pointer-events="none" x="0" y="-5" font-size="10px" fill="#FFFFFF" font-family="sans-serif"> The</text><text class="caption" text-anchor="middle" pointer-events="none" x="0" y="5" font-size="10px" fill="#FFFFFF" font-family="sans-serif"> Matrix</text><text class="caption" text-anchor="middle" pointer-events="none" x="0" y="15" font-size="10px" fill="#FFFFFF" font-family="sans-serif"> Rel…</text></g><g class="node" aria-label="graph-node3" transform="translate(192.09600961592022,-146.5244027971269)"><circle class="outline" cx="0" cy="0" r="25" fill="#C990C0" stroke="#b261a5" stroke-width="2px"/><text class="caption" text-anchor="middle" pointer-events="none" x="0" y="0" font-size="10px" fill="#FFFFFF" font-family="sans-serif"> Laurence</text><text class="caption" text-anchor="middle" pointer-events="none" x="0" y="10" font-size="10px" fill="#FFFFFF" font-family="sans-serif"> Fishb…</text></g><g class="node" aria-label="graph-node2" transform="translate(93.86557978336543,-162.19661328425252)"><circle class="outline" cx="0" cy="0" r="25" fill="#C990C0" stroke="#b261a5" stroke-width="2px"/><text class="caption" text-anchor="middle" pointer-events="none" x="0" y="5" font-size="10px" fill="#FFFFFF" font-family="sans-serif"> Carrie-A…</text></g><g class="node" aria-label="graph-node1" transform="translate(-39.13013095632446,-73.89879672917421)"><circle class="outline" cx="0" cy="0" r="25" fill="#C990C0" stroke="#b261a5" stroke-width="2px"/><text class="caption" text-anchor="middle" pointer-events="none" x="0" y="0" font-size="10px" fill="#FFFFFF" font-family="sans-serif"> Keanu</text><text class="caption" text-anchor="middle" pointer-events="none" x="0" y="10" font-size="10px" fill="#FFFFFF" font-family="sans-serif"> Reeves</text></g><g class="node" aria-label="graph-node154" transform="translate(-90.8154619741504,-212.05751617759313)"><circle class="outline" cx="0" cy="0" r="25" fill="#F79767" stroke="#f36924" stroke-width="2px"/><text class="caption" text-anchor="middle" pointer-events="none" x="0" y="5" font-size="10px" fill="#FFFFFF" font-family="sans-serif"> Somethi…</text></g><g class="node" aria-label="graph-node87" transform="translate(-177.22412791754968,-127.55423711288357)"><circle class="outline" cx="0" cy="0" r="25" fill="#F79767" stroke="#f36924" stroke-width="2px"/><text class="caption" text-anchor="middle" pointer-events="none" x="0" y="0" font-size="10px" fill="#FFFFFF" font-family="sans-serif"> The</text><text class="caption" text-anchor="middle" pointer-events="none" x="0" y="10" font-size="10px" fill="#FFFFFF" font-family="sans-serif"> Repla…</text></g><g class="node" aria-label="graph-node100" transform="translate(-109.71630577012996,57.772757163447025)"><circle class="outline" cx="0" cy="0" r="25" fill="#F79767" stroke="#f36924" stroke-width="2px"/><text class="caption" text-anchor="middle" pointer-events="none" x="0" y="0" font-size="10px" fill="#FFFFFF" font-family="sans-serif"> Johnny</text><text class="caption" text-anchor="middle" pointer-events="none" x="0" y="10" font-size="10px" fill="#FFFFFF" font-family="sans-serif"> Mnem…</text></g><g class="node" aria-label="graph-node11" transform="translate(-181.2746432708874,-26.717380688078308)"><circle class="outline" cx="0" cy="0" r="25" fill="#F79767" stroke="#f36924" stroke-width="2px"/><text class="caption" text-anchor="middle" pointer-events="none" x="0" y="-5" font-size="10px" fill="#FFFFFF" font-family="sans-serif"> The</text><text class="caption" text-anchor="middle" pointer-events="none" x="0" y="5" font-size="10px" fill="#FFFFFF" font-family="sans-serif"> Devil's</text><text class="caption" text-anchor="middle" pointer-events="none" x="0" y="15" font-size="10px" fill="#FFFFFF" font-family="sans-serif"> Adv…</text></g></g></svg>